#!OML:ASF F:\VICON\USERDATA\INSTALL\rory3\rory3.ASF
:FULLY-SPECIFIED
:DEGREES
198
root 4.23214 16.6478 -6.55896 248.375 67.2873 -130.95
lowerback 0.408673 1.54769 -3.69737
upperback -4.29492 1.96485 -6.15359
thorax -4.58932 1.09221 -4.42583
lowerneck -20.2013 -1.27381 -9.73874
upperneck 25.3219 -1.64076 12.3147
head 11.8234 0.0702502 6.11575
rclavicle 5.32743e-014 -8.90555e-014
rhumerus -16.2231 -0.983735 -37.382
rradius 50.2406
rwrist 4.3022
rhand -30.8123 -51.032
rfingers 7.12502
rthumb 175.898 99.0277
lclavicle 5.32743e-014 -8.90555e-014
lhumerus -11.1041 -0.245386 41.036
lradius 55.3104
lwrist 22.3271
lhand -42.2439 -754.793
lfingers 7.12502
lthumb -15.1301 -5.36586
rfemur -29.946 -7.71266 34.7754
rtibia 39.9253
rfoot -19.7245 -23.4531
rtoes -6.7565
lfemur -69.0631 25.1014 -22.6003
ltibia 55.3651
lfoot -9.25942 22.8095
ltoes 5.28983
199
root 4.21564 16.6918 -6.49896 249.49 67.9355 -129.626
lowerback 0.0319895 1.63543 -3.47238
upperback -4.28304 2.11204 -6.00275
thorax -4.35116 1.15623 -4.38073
lowerneck -20.0021 -1.47477 -9.67027
upperneck 25.5422 -1.97134 12.3021
head 11.9148 -0.0749407 6.05938
rclavicle 3.18055e-015 2.54444e-014
rhumerus -16.0244 -0.468382 -39.1535
rradius 50.2916
rwrist 4.25216
rhand -31.0001 -50.5814
rfingers 7.12502
rthumb 175.717 99.4819
lclavicle 3.18055e-015 2.54444e-014
lhumerus -11.6425 -0.863688 41.3821
lradius 56.1966
lwrist 22.7749
lhand -42.6528 -754.887
lfingers 7.12502
lthumb -15.524 -5.48986
rfemur -29.6493 -7.35268 34.5987
rtibia 39.539
rfoot -18.736 -23.7789
rtoes -9.12022
lfemur -67.9104 24.3552 -21.0834
ltibia 54.942
lfoot -9.53445 23.3743
ltoes 7.25083
200
root 4.19623 16.7181 -6.44256 250.224 68.6861 -128.647
lowerback -0.227503 1.78204 -3.27417
upperback -4.23362 2.32904 -5.94559
thorax -4.13484 1.25579 -4.42447
lowerneck -19.7037 -1.76312 -9.77655
upperneck 25.6172 -2.41102 12.4258
head 11.9489 -0.272379 6.06029
rclavicle -9.54166e-015 -6.36111e-014
rhumerus -16.272 0.765177 -40.7062
rradius 51.156
rwrist 3.69567
rhand -30.2715 -51.1297
rfingers 7.12502
rthumb 176.42 98.9207
lclavicle -9.54166e-015 -6.36111e-014
lhumerus -11.9888 -1.54576 41.8344
lradius 57.0274
lwrist 23.377
lhand -42.7498 -755.096
lfingers 7.12502
lthumb -15.6174 -5.70624
rfemur -29.3965 -7.34413 34.248
rtibia 39.259
rfoot -18.0027 -23.5558
rtoes -10.5295
lfemur -66.9933 24.0792 -20.5728
ltibia 54.5279
lfoot -8.73293 23.796
ltoes 5.91249
201
root 4.17312 16.7423 -6.39493 250.578 69.5574 -128.029
lowerback -0.308598 1.99114 -3.22133
upperback -4.21025 2.61174 -5.87577
thorax -4.05024 1.39343 -4.38378
lowerneck -19.4318 -2.16335 -10.039
upperneck 25.7679 -2.97448 12.5886
head 12.0404 -0.535431 6.09156
rclavicle -3.65764e-014 3.18055e-015
rhumerus -16.215 0.76878 -42.0803
rradius 50.3913
rwrist 4.375
rhand -31.6206 -49.5971
rfingers 7.12502
rthumb 175.118 100.479
lclavicle -3.65764e-014 3.18055e-015
lhumerus -12.2057 -1.97949 42.6322
lradius 57.6496
lwrist 23.4724
lhand -42.6365 -755.632
lfingers 7.12502
lthumb -15.5083 -6.23364
rfemur -29.1595 -7.59635 33.6682
rtibia 39.0609
rfoot -17.9635 -22.6985
rtoes -10.0402
lfemur -65.9357 23.504 -20.0772
ltibia 54.0896
lfoot -8.59852 24.2477
ltoes 6.32014
202
root 4.15019 16.7653 -6.34819 251.207 70.4325 -127.19
lowerback -0.429721 2.17729 -3.13092
upperback -4.2043 2.86601 -5.76302
thorax -3.96294 1.51601 -4.3161
lowerneck -18.7474 -2.60089 -10.7365
upperneck 25.5342 -3.5393 12.9909
head 11.9142 -0.827616 6.26528
rclavicle -1.82882e-014 -7.95139e-014
rhumerus -15.885 0.591699 -43.4132
rradius 49.2474
rwrist 5.43794
rhand -31.1331 -48.7076
rfingers 7.12502
rthumb 175.588 101.358
lclavicle -1.82882e-014 -7.95139e-014
lhumerus -12.5532 -2.28893 43.4839
lradius 58.1714
lwrist 23.4317
lhand -42.909 -755.791
lfingers 7.12502
lthumb -15.7707 -6.41327
rfemur -28.9871 -7.25807 33.0325
rtibia 38.939
rfoot -18.2742 -22.1941
rtoes -8.91023
lfemur -64.9317 22.909 -19.5544
ltibia 53.6807
lfoot -8.84407 24.7365
ltoes 7.48226
203
root 4.12767 16.7897 -6.30322 252.074 71.2331 -126.118
lowerback -0.588742 2.21511 -2.82675
upperback -4.19686 2.92873 -5.66716
thorax -3.85063 1.53619 -4.37804
lowerneck -17.8739 -2.83201 -11.4758
upperneck 24.8445 -3.88264 13.7085
head 11.5552 -0.99561 6.57638
rclavicle -1.82882e-014 -7.63333e-014
rhumerus -15.2872 0.620222 -45.0344
rradius 48.3919
rwrist 6.34888
rhand -29.9893 -47.3502
rfingers 7.12502
rthumb 176.693 102.696
lclavicle -1.82882e-014 -7.63333e-014
lhumerus -13.325 -2.62759 44.0356
lradius 58.8179
lwrist 23.8787
lhand -43.5121 -755.834
lfingers 7.12502
lthumb -16.3514 -6.50296
rfemur -28.8272 -6.49941 32.4678
rtibia 38.8246
rfoot -18.3996 -22.2223
rtoes -8.34406
lfemur -63.9892 22.4396 -19.0536
ltibia 53.2732
lfoot -8.90507 25.1512
ltoes 7.7966
204
root 4.10581 16.8104 -6.26732 253.702 71.7266 -124.323
lowerback -0.865423 2.21515 -2.04543
upperback -4.17684 2.95182 -5.60349
thorax -3.63485 1.52075 -4.73389
lowerneck -17.4079 -2.90653 -11.3243
upperneck 24.4419 -4.08602 13.8077
head 11.3396 -1.07798 6.52636
rclavicle 1.82882e-014 -1.59028e-014
rhumerus -14.6712 0.76553 -46.9864
rradius 47.9571
rwrist 6.9174
rhand -28.7432 -46.264
rfingers 7.12502
rthumb 177.896 103.767
lclavicle 1.82882e-014 -1.59028e-014
lhumerus -14.1537 -2.95886 44.2621
lradius 59.4918
lwrist 24.1554
lhand -43.7059 -755.97
lfingers 7.12502
lthumb -16.5381 -6.65473
rfemur -28.7664 -6.08617 32.3517
rtibia 38.7517
rfoot -18.1588 -22.0988
rtoes -8.72346
lfemur -63.1571 22.1149 -18.2142
ltibia 52.856
lfoot -8.57545 25.3939
ltoes 7.46787
205
root 4.0852 16.8338 -6.22923 255.907 72.6383 -121.989
lowerback -1.23792 2.23928 -1.77068
upperback -4.1373 3.00761 -5.66883
thorax -3.36208 1.54141 -4.9363
lowerneck -17.6015 -3.05909 -10.7703
upperneck 24.7899 -4.3743 13.4059
head 11.5333 -1.19596 6.24857
rclavicle 6.12257e-014 4.13472e-014
rhumerus -13.932 0.644501 -49.1749
rradius 47.264
rwrist 7.85845
rhand -29.9933 -45.3999
rfingers 7.12502
rthumb 176.689 104.646
lclavicle 6.12257e-014 4.13472e-014
lhumerus -14.9069 -2.66504 44.295
lradius 59.9512
lwrist 23.099
lhand -42.7119 -755.379
lfingers 7.12502
lthumb -15.5809 -5.98683
rfemur -28.7725 -5.4577 31.8367
rtibia 38.7154
rfoot -18.0774 -21.8184
rtoes -8.28037
lfemur -62.2523 22.0031 -17.8187
ltibia 52.4153
lfoot -8.28999 25.4918
ltoes 7.35458
206
root 4.06366 16.8667 -6.17857 257.287 74.3602 -120.255
lowerback -1.28122 2.21828 -2.65414
upperback -4.07844 2.98387 -5.80816
thorax -3.31636 1.55929 -4.58121
lowerneck -17.9871 -3.14605 -10.7616
upperneck 25.3177 -4.55358 13.6004
head 11.8477 -1.23376 6.33587
rclavicle -2.46493e-014 6.99722e-014
rhumerus -13.2701 1.11185 -51.1695
rradius 46.6767
rwrist 8.5205
rhand -31.7781 -44.2063
rfingers 7.12502
rthumb 174.966 105.874
lclavicle -2.46493e-014 6.99722e-014
lhumerus -15.9401 -1.98507 44.5258
lradius 60.406
lwrist 21.8169
lhand -41.5606 -755.251
lfingers 7.12502
lthumb -14.4718 -5.77574
rfemur -28.5612 -4.57863 30.3447
rtibia 38.7285
rfoot -18.4278 -21.6506
rtoes -6.35245
lfemur -60.8869 21.818 -18.3156
ltibia 51.883
lfoot -7.80172 25.5218
ltoes 5.88547
